<svg width="100" height="100" viewBox="0 0 100 100" fill="none" xmlns="http://www.w3.org/2000/svg">
<path d="M71.1539 46.1538C71.1539 50.3377 69.9132 54.4275 67.5888 57.9063C65.2644 61.385 61.9606 64.0964 58.0952 65.6974C54.2299 67.2985 49.9765 67.7174 45.8731 66.9012C41.7697 66.085 38.0004 64.0703 35.042 61.1119C32.0836 58.1534 30.0689 54.3842 29.2526 50.2807C28.4364 46.1773 28.8553 41.924 30.4564 38.0586C32.0575 34.1933 34.7688 30.8895 38.2476 28.5651C41.7263 26.2406 45.8162 25 50 25C55.6084 25.0064 60.9853 27.2371 64.951 31.2028C68.9167 35.1686 71.1475 40.5454 71.1539 46.1538ZM100 50C100 59.8891 97.0676 69.556 91.5735 77.7785C86.0794 86.0009 78.2705 92.4096 69.1342 96.194C59.9979 99.9783 49.9445 100.968 40.2455 99.0392C30.5464 97.11 21.6373 92.3479 14.6447 85.3553C7.65206 78.3627 2.89002 69.4536 0.960758 59.7545C-0.968502 50.0555 0.0216642 40.0021 3.80605 30.8658C7.59043 21.7295 13.999 13.9206 22.2215 8.42652C30.444 2.93245 40.1109 0 50 0C63.2565 0.0139991 75.9661 5.28633 85.3399 14.6601C94.7137 24.0339 99.986 36.7435 100 50ZM92.3077 50C92.3015 44.3054 91.147 38.6706 88.9132 33.4325C86.6794 28.1944 83.4121 23.4605 79.3068 19.5141C75.2015 15.5677 70.3424 12.4897 65.0203 10.4642C59.6981 8.43878 54.0221 7.50746 48.3317 7.72596C25.6875 8.60096 7.62983 27.4615 7.69233 50.1202C7.71404 60.4352 11.5184 70.384 18.3846 78.0817C21.1809 74.026 24.7329 70.5474 28.8462 67.8365C29.1969 67.6049 29.6138 67.4945 30.0331 67.5223C30.4525 67.5501 30.8512 67.7145 31.1683 67.9904C36.3951 72.5113 43.0749 74.9993 49.9856 74.9993C56.8963 74.9993 63.5761 72.5113 68.8029 67.9904C69.12 67.7145 69.5187 67.5501 69.938 67.5223C70.3574 67.4945 70.7743 67.6049 71.125 67.8365C75.2435 70.546 78.8005 74.0246 81.601 78.0817C88.5012 70.3559 92.3128 60.3586 92.3077 50Z" fill="#1A1A1A"/>
</svg>
