<svg width="29" height="30" viewBox="0 0 29 30" fill="none" xmlns="http://www.w3.org/2000/svg">
<g clip-path="url(#clip0_13_13)">
<path fill-rule="evenodd" clip-rule="evenodd" d="M19.1764 8.76105C16.8573 4.74423 11.0595 4.74422 8.74044 8.76104L1.69612 20.9621C-0.622989 24.979 2.27589 30 6.91412 30H21.0027C25.641 30 28.5399 24.979 26.2208 20.9622L25.6993 20.059L23.2213 15.7669L19.1764 8.76105ZM14.0589 15.188C15.7227 15.188 17.0715 13.8392 17.0715 12.1754C17.0715 10.5115 15.7227 9.16273 14.0589 9.16273C12.3951 9.16273 11.0463 10.5115 11.0463 12.1754C11.0463 13.8392 12.3951 15.188 14.0589 15.188Z" fill="#EAEAEA"/>
<path fill-rule="evenodd" clip-rule="evenodd" d="M25.4866 20.3643C25.5589 20.2634 25.6298 20.1616 25.6993 20.059L23.2213 15.7669C22.9252 16.5223 22.5354 17.2418 22.0583 17.9076C20.9884 19.4007 19.522 20.5645 17.825 21.2674C16.1279 21.9704 14.2681 22.1843 12.4558 21.8851C10.6435 21.5859 8.95112 20.7855 7.57012 19.5744C6.18912 18.3633 5.17463 16.7898 4.64142 15.0321C4.10822 13.2744 4.07759 11.4025 4.55299 9.62826L0.479043 8.53665C-0.200106 11.0713 -0.156346 13.7454 0.605373 16.2564C1.36709 18.7675 2.81636 21.0152 4.78922 22.7454C6.76208 24.4755 9.17977 25.619 11.7688 26.0464C14.3577 26.4739 17.0147 26.1682 19.439 25.1641C21.8633 24.1599 23.9582 22.4973 25.4866 20.3643Z" fill="#DD7070"/>
<path d="M26.4577 5.54804C25.2207 3.23384 23.3608 1.31202 21.0883 0L18.9795 3.6526C20.5702 4.57102 21.8722 5.91629 22.7381 7.53623C23.6039 9.15616 23.9992 10.9861 23.879 12.819C23.8125 13.8345 23.5892 14.8285 23.2213 15.7669L25.6993 20.059C27.0987 17.9929 27.9242 15.5894 28.0877 13.0948C28.2593 10.4764 27.6947 7.86223 26.4577 5.54804Z" fill="#DD7070"/>
</g>
<defs>
<clipPath id="clip0_13_13">
<rect width="28.1178" height="30" fill="white"/>
</clipPath>
</defs>
</svg>
