<svg width="20" height="20" viewBox="0 0 20 20" fill="none" xmlns="http://www.w3.org/2000/svg">
<path d="M19.4459 9.99688C19.4186 9.93516 18.7568 8.46719 17.2857 6.99609C15.3256 5.03594 12.8498 4 10.1248 4C7.39981 4 4.92403 5.03594 2.96387 6.99609C1.49278 8.46719 0.827934 9.9375 0.803716 9.99688C0.768179 10.0768 0.749817 10.1633 0.749817 10.2508C0.749817 10.3383 0.768179 10.4248 0.803716 10.5047C0.831059 10.5664 1.49278 12.0336 2.96387 13.5047C4.92403 15.4641 7.39981 16.5 10.1248 16.5C12.8498 16.5 15.3256 15.4641 17.2857 13.5047C18.7568 12.0336 19.4186 10.5664 19.4459 10.5047C19.4814 10.4248 19.4998 10.3383 19.4998 10.2508C19.4998 10.1633 19.4814 10.0768 19.4459 9.99688ZM10.1248 15.25C7.72012 15.25 5.61934 14.3758 3.88028 12.6523C3.16672 11.9427 2.55964 11.1336 2.07793 10.25C2.55951 9.36636 3.1666 8.55717 3.88028 7.84766C5.61934 6.12422 7.72012 5.25 10.1248 5.25C12.5295 5.25 14.6303 6.12422 16.3693 7.84766C17.0843 8.557 17.6927 9.36619 18.1756 10.25C17.6123 11.3016 15.1584 15.25 10.1248 15.25ZM10.1248 6.5C9.38313 6.5 8.6581 6.71993 8.04142 7.13199C7.42474 7.54404 6.94409 8.12971 6.66026 8.81494C6.37643 9.50016 6.30217 10.2542 6.44686 10.9816C6.59156 11.709 6.94871 12.3772 7.47316 12.9017C7.99761 13.4261 8.66579 13.7833 9.39322 13.9279C10.1206 14.0726 10.8746 13.9984 11.5599 13.7145C12.2451 13.4307 12.8308 12.9501 13.2428 12.3334C13.6549 11.7167 13.8748 10.9917 13.8748 10.25C13.8738 9.25576 13.4784 8.30253 12.7753 7.59949C12.0723 6.89645 11.1191 6.50103 10.1248 6.5ZM10.1248 12.75C9.63036 12.75 9.14701 12.6034 8.73588 12.3287C8.32476 12.054 8.00433 11.6635 7.81511 11.2067C7.62589 10.7499 7.57638 10.2472 7.67285 9.76227C7.76931 9.27732 8.00741 8.83186 8.35704 8.48223C8.70667 8.1326 9.15213 7.8945 9.63708 7.79804C10.122 7.70157 10.6247 7.75108 11.0815 7.9403C11.5383 8.12952 11.9288 8.44995 12.2035 8.86107C12.4782 9.2722 12.6248 9.75555 12.6248 10.25C12.6248 10.913 12.3614 11.5489 11.8926 12.0178C11.4237 12.4866 10.7879 12.75 10.1248 12.75Z" fill="#1A1A1A"/>
</svg>
