<svg width="24" height="24" viewBox="0 0 24 24" fill="none" xmlns="http://www.w3.org/2000/svg">
<path d="M14.0306 12.9694C13.961 12.8996 13.8782 12.8443 13.7872 12.8066C13.6961 12.7688 13.5986 12.7494 13.5 12.7494C13.4014 12.7494 13.3038 12.7688 13.2128 12.8066C13.1217 12.8443 13.039 12.8996 12.9694 12.9694L11.25 14.6897L9.3103 12.75L11.0306 11.0306C11.1713 10.8899 11.2504 10.699 11.2504 10.5C11.2504 10.301 11.1713 10.1101 11.0306 9.96935C10.8899 9.82862 10.699 9.74956 10.5 9.74956C10.301 9.74956 10.1101 9.82862 9.96936 9.96935L8.24999 11.6897L6.53061 9.96935C6.38988 9.82862 6.19901 9.74956 5.99999 9.74956C5.80097 9.74956 5.6101 9.82862 5.46936 9.96935C5.32863 10.1101 5.24957 10.301 5.24957 10.5C5.24957 10.699 5.32863 10.8899 5.46936 11.0306L6.06468 11.625L3.87843 13.8103C3.59978 14.0889 3.37874 14.4196 3.22793 14.7836C3.07713 15.1477 2.99951 15.5378 2.99951 15.9319C2.99951 16.3259 3.07713 16.716 3.22793 17.0801C3.37874 17.4441 3.59978 17.7748 3.87843 18.0534L4.3828 18.5569L1.71936 21.2194C1.64968 21.289 1.59441 21.3718 1.55669 21.4628C1.51898 21.5539 1.49957 21.6514 1.49957 21.75C1.49957 21.8485 1.51898 21.9461 1.55669 22.0372C1.59441 22.1282 1.64968 22.2109 1.71936 22.2806C1.8601 22.4213 2.05097 22.5004 2.24999 22.5004C2.34854 22.5004 2.44612 22.481 2.53716 22.4433C2.62821 22.4056 2.71093 22.3503 2.78061 22.2806L5.44311 19.6172L5.94655 20.1215C6.22514 20.4002 6.55588 20.6212 6.91991 20.772C7.28393 20.9228 7.67409 21.0005 8.06811 21.0005C8.46214 21.0005 8.8523 20.9228 9.21632 20.772C9.58034 20.6212 9.91109 20.4002 10.1897 20.1215L12.375 17.9353L12.9694 18.5306C13.039 18.6003 13.1218 18.6556 13.2128 18.6933C13.3039 18.731 13.4014 18.7504 13.5 18.7504C13.5985 18.7504 13.6961 18.731 13.7872 18.6933C13.8782 18.6556 13.9609 18.6003 14.0306 18.5306C14.1003 18.4609 14.1556 18.3782 14.1933 18.2872C14.231 18.1961 14.2504 18.0985 14.2504 18C14.2504 17.9014 14.231 17.8039 14.1933 17.7128C14.1556 17.6218 14.1003 17.539 14.0306 17.4694L12.3103 15.75L14.0306 14.0306C14.1003 13.9609 14.1557 13.8782 14.1934 13.7872C14.2312 13.6961 14.2506 13.5985 14.2506 13.5C14.2506 13.4014 14.2312 13.3038 14.1934 13.2128C14.1557 13.1217 14.1003 13.039 14.0306 12.9694ZM9.12843 19.0631C8.84715 19.3442 8.46577 19.5021 8.06811 19.5021C7.67046 19.5021 7.28908 19.3442 7.0078 19.0631L4.93968 16.9922C4.65859 16.7109 4.50068 16.3295 4.50068 15.9319C4.50068 15.5342 4.65859 15.1528 4.93968 14.8715L7.12499 12.6853L11.3147 16.875L9.12843 19.0631ZM22.2806 1.71935C22.211 1.64962 22.1282 1.5943 22.0372 1.55656C21.9461 1.51882 21.8486 1.49939 21.75 1.49939C21.6514 1.49939 21.5538 1.51882 21.4628 1.55656C21.3717 1.5943 21.289 1.64962 21.2194 1.71935L18.5569 4.38279L18.0534 3.87842C17.4902 3.31681 16.7273 3.00143 15.9319 3.00143C15.1365 3.00143 14.3735 3.31681 13.8103 3.87842L11.625 6.06467L11.0306 5.46935C10.8899 5.32862 10.699 5.24956 10.5 5.24956C10.301 5.24956 10.1101 5.32862 9.96937 5.46935C9.82863 5.61009 9.74957 5.80096 9.74957 5.99998C9.74957 6.199 9.82863 6.38987 9.96936 6.53061L17.4694 14.0306C17.539 14.1003 17.6218 14.1556 17.7128 14.1933C17.8039 14.231 17.9014 14.2504 18 14.2504C18.0985 14.2504 18.1961 14.231 18.2872 14.1933C18.3782 14.1556 18.4609 14.1003 18.5306 14.0306C18.6003 13.9609 18.6556 13.8782 18.6933 13.7872C18.731 13.6961 18.7504 13.5985 18.7504 13.5C18.7504 13.4014 18.731 13.3039 18.6933 13.2128C18.6556 13.1218 18.6003 13.039 18.5306 12.9694L17.9353 12.375L20.1216 10.1897C20.4002 9.91108 20.6212 9.58033 20.772 9.21631C20.9229 8.85229 21.0005 8.46213 21.0005 8.0681C21.0005 7.67408 20.9229 7.28392 20.772 6.9199C20.6212 6.55587 20.4002 6.22513 20.1216 5.94654L19.6172 5.4431L22.2806 2.7806C22.3503 2.71095 22.4057 2.62823 22.4434 2.53718C22.4812 2.44614 22.5006 2.34854 22.5006 2.24998C22.5006 2.15142 22.4812 2.05382 22.4434 1.96277C22.4057 1.87173 22.3503 1.78901 22.2806 1.71935ZM19.0603 9.1256L16.875 11.3147L12.6853 7.12498L14.8716 4.93967C15.1528 4.65858 15.5342 4.50067 15.9319 4.50067C16.3295 4.50067 16.7109 4.65858 16.9922 4.93967L19.0603 7.00217C19.2003 7.14155 19.3114 7.30721 19.3873 7.48966C19.4631 7.6721 19.5021 7.86772 19.5021 8.06529C19.5021 8.26286 19.4631 8.45849 19.3873 8.64093C19.3114 8.82337 19.2003 8.98904 19.0603 9.12842V9.1256Z" fill="#1A1A1A"/>
</svg>
